Coordinates
version=1
nRows=21
nColumns=12
inDegrees=yes

Units are S.I. units (second, meters, Newtons, ...)
Angles are in degrees

endheader
time	SC_y	SC_z	SC_x	AC_y	AC_z	AC_x	GH_y	GH_z	GH_yy	EL_x	PS_y
       0.0              -46.47          38.42          19.47          38.32        -0.1552         -14.55         -36.56          71.84          118.1          76.85          101.7
    0.0235              -46.47          38.42          19.47          38.32        -0.1551         -14.55         -36.58          71.83          118.1          76.85          101.7
     0.047              -46.47          38.41          19.47          38.32        -0.1549         -14.55          -36.6          71.81          118.0          76.86          101.7
    0.0705              -46.47           38.4          19.48          38.33        -0.1548         -14.55         -36.63           71.8          118.0          76.86          101.7
     0.094              -46.47          38.39          19.48          38.33        -0.1547         -14.55         -36.65          71.78          118.0          76.86          101.7
    0.1175              -46.47          38.39          19.48          38.34        -0.1546         -14.55         -36.68          71.77          117.9          76.86          101.7
     0.141              -46.47          38.38          19.49          38.34        -0.1544         -14.55         -36.71          71.75          117.9          76.87          101.7
    0.1645              -46.47          38.37          19.49          38.35        -0.1543         -14.55         -36.74          71.73          117.8          76.87          101.7
     0.188              -46.47          38.36          19.49          38.35        -0.1541         -14.55         -36.77          71.71          117.8          76.88          101.7
    0.2115              -46.47          38.35           19.5          38.36        -0.1539         -14.55          -36.8          71.68          117.8          76.88          101.8
     0.235              -46.47          38.34           19.5          38.37        -0.1537         -14.55         -36.84          71.66          117.7          76.88          101.8
    0.2585              -46.47          38.32          19.51          38.37        -0.1535         -14.55         -36.88          71.63          117.6          76.89          101.8
     0.282              -46.47          38.31          19.51          38.38        -0.1533         -14.55         -36.93          71.61          117.6          76.89          101.8
    0.3055              -46.47           38.3          19.52          38.39         -0.153         -14.55         -36.97          71.58          117.5           76.9          101.8
     0.329              -46.47          38.28          19.52           38.4        -0.1528         -14.55         -37.02          71.54          117.4          76.91          101.8
    0.3525              -46.47          38.26          19.53          38.41        -0.1525         -14.55         -37.08          71.51          117.4          76.91          101.8
     0.376              -46.46          38.25          19.53          38.42        -0.1522         -14.55         -37.14          71.47          117.3          76.92          101.8
    0.3995              -46.46          38.23          19.54          38.43        -0.1519         -14.56          -37.2          71.43          117.2          76.93          101.8
     0.423              -46.46          38.21          19.55          38.45        -0.1515         -14.56         -37.27          71.38          117.1          76.94          101.9
    0.4465              -46.46          38.18          19.56          38.46        -0.1511         -14.56         -37.35          71.33          117.0          76.95          101.9
      0.47              -46.46          38.16          19.57          38.48        -0.1507         -14.56         -37.44          71.28          116.8          76.96          101.9
